start_time,end_time,duration,pitch,pitch_midi,velocity,note_name
273.5095904761905,274.69509206349204,1.1855015873015304,233.08188075904496,58,0.6293146,Asharp3
271.46495056689344,271.6042702947846,0.13931972789117708,391.99543598174927,67,0.43549278,G4
271.1050412698413,271.2908009070295,0.1857596371881982,466.1637615180899,70,0.5226177,Asharp4
270.9425015873016,271.1050412698413,0.16253968253971607,466.1637615180899,70,0.40451986,Asharp4
269.69895011337866,269.8614897959184,0.16253968253971607,1318.5102276514797,88,0.45730236,E6
269.37387074829934,269.83826984126983,0.46439909297049553,440.0,69,0.48366752,A4
267.75879999999995,267.97938956916096,0.2205895691610067,415.3046975799451,68,0.48868465,Gsharp4
266.24950294784577,266.38882267573695,0.13931972789117708,739.9888454232688,78,0.35498735,Fsharp5
265.5864503401361,265.84186984126984,0.25541950113375833,369.9944227116344,66,0.6062254,Fsharp4
255.6651102040816,255.90891972789115,0.24380952380954568,1975.533205024496,95,0.31453103,B6
254.80597188208617,254.9452916099773,0.13931972789112024,311.1269837220809,63,0.5122113,Dsharp4
252.58718231292517,253.73657006802722,1.1493877551020546,1864.6550460723597,94,0.381457,Asharp6
252.23759909297053,252.58718231292517,0.3495832199546385,1864.6550460723597,94,0.32056308,Asharp6
251.70354013605444,253.96876961451247,2.265229478458025,369.9944227116344,66,0.736424,Fsharp4
250.2393990929705,250.69347210884354,0.4540730158730355,1046.5022612023945,84,0.3478101,C6
249.70534013605442,249.93753968253966,0.23219954648524777,1108.7305239074883,85,0.47066817,Csharp6
249.60085034013605,249.87948979591835,0.2786394557822973,1479.9776908465376,90,0.47540426,Fsharp6
249.38026077097504,249.62407029478456,0.24380952380951726,369.9944227116344,66,0.4653927,Fsharp4
247.10342131519275,247.32401088435375,0.2205895691610067,369.9944227116344,66,0.41387945,Fsharp4
246.68546213151927,246.894441723356,0.2089795918367372,369.9944227116344,66,0.5179793,Fsharp4
246.30104897959183,246.68546213151927,0.38441315192744696,369.9944227116344,66,0.4668936,Fsharp4
243.73396009070294,244.25640907029478,0.522448979591843,233.08188075904496,58,0.6585004,Asharp3
243.5946403628118,243.73396009070294,0.13931972789114866,233.08188075904496,58,0.7486901,Asharp3
243.07219138321994,243.2463410430839,0.17414965986395714,261.6255653005986,60,0.5159349,C4
242.5845723356009,242.73550204081633,0.15092970521541815,698.4564628660078,77,0.201821,F5
241.01594149659866,241.20170113378686,0.1857596371881982,830.6093951598903,80,0.22094816,Gsharp5
240.60959229024945,240.7489120181406,0.13931972789114866,277.1826309768721,61,0.43942693,Csharp4
240.36449886621315,240.4934925170068,0.1289936507936602,932.3275230361799,82,0.2904387,Asharp5
238.05282947845805,238.23858911564625,0.1857596371881982,932.3275230361799,82,0.3381791,Asharp5
235.07939138321996,235.27676099773245,0.19736961451249613,466.1637615180899,70,0.34990436,Asharp4
234.70787210884356,235.23032108843537,0.5224489795918146,233.08188075904496,58,0.6213359,Asharp3
234.41762267573696,234.61499229024946,0.19736961451249613,1864.6550460723597,94,0.45064557,Asharp6
234.3815088435374,234.70787210884356,0.32636326530615634,233.08188075904496,58,0.8223253,Asharp3
233.10441133786847,233.32500090702948,0.2205895691610067,174.61411571650194,53,0.37076575,F3
231.48934058956917,231.64027029478459,0.15092970521541815,277.1826309768721,61,0.34092534,Csharp4
231.24553106575965,231.41968072562358,0.17414965986392872,622.2539674441618,75,0.24400225,Dsharp5
228.95708163265306,229.1892811791383,0.23219954648524777,932.3275230361799,82,0.4282543,Asharp5
225.4250807256236,225.6456702947846,0.2205895691610067,2093.004522404789,96,0.311761,C7
224.8910217687075,225.03034149659865,0.13931972789114866,277.1826309768721,61,0.4281858,Csharp4
222.13688934240363,222.34586893424037,0.2089795918367372,932.3275230361799,82,0.3463567,Asharp5
219.90648979591836,220.09224943310656,0.1857596371881982,932.3275230361799,82,0.38208377,Asharp5
215.82881995464854,217.8386299319728,2.0098099773242666,311.1269837220809,63,0.6547548,Dsharp4
215.09739138321996,215.49213061224492,0.39473922902496383,1244.5079348883237,87,0.41256127,Dsharp6
215.00451156462586,215.53857052154197,0.5340589569161125,466.1637615180899,70,0.46977067,Asharp4
215.00451156462586,215.65467029478458,0.6501587301587222,311.1269837220809,63,0.57686317,Dsharp4
214.16730929705216,214.50399863945577,0.33668934240361637,233.08188075904496,58,0.62486386,Asharp3
213.4010507936508,213.57520045351473,0.17414965986392872,1244.5079348883237,87,0.34292433,Dsharp6
213.3313909297052,213.7377401360544,0.4063492063492049,207.65234878997256,56,0.5539173,Gsharp3
213.3081709750567,213.9002798185941,0.5921088435374031,277.1826309768721,61,0.76954484,Csharp4
213.145631292517,213.3313909297052,0.1857596371881982,207.65234878997256,56,0.6540138,Gsharp3
213.12241133786847,213.3081709750567,0.18575963718822663,277.1826309768721,61,0.8229727,Csharp4
211.98334965986396,212.32003900226758,0.33668934240361637,207.65234878997256,56,0.51879066,Gsharp3
211.82080997732427,211.98334965986396,0.16253968253968765,207.65234878997256,56,0.64905006,Gsharp3
211.4028507936508,211.5653904761905,0.16253968253968765,184.9972113558172,54,0.42662427,Fsharp3
211.07777142857142,211.32158095238097,0.24380952380954568,207.65234878997256,56,0.66843444,Gsharp3
210.8107419501134,211.07777142857142,0.2670294784580278,207.65234878997256,56,0.5392619,Gsharp3
210.39149886621314,210.6482022675737,0.2567034013605678,184.9972113558172,54,0.7131138,Fsharp3
209.9619297052154,210.39149886621314,0.4295691609977439,184.9972113558172,54,0.45743877,Fsharp3
209.43948072562358,209.63685034013605,0.1973696145124677,207.65234878997256,56,0.58567894,Gsharp3
208.48617868480724,208.8938117913832,0.4076331065759575,277.1826309768721,61,0.64079446,Csharp4
206.98849160997733,207.3484009070295,0.35990929705215535,184.9972113558172,54,0.7013217,Fsharp3
206.45314875283447,206.6040784580499,0.15092970521544657,207.65234878997256,56,0.7114786,Gsharp3
206.26738911564627,206.41831882086169,0.15092970521541815,220.0,57,0.5718509,A3
205.58240045351474,205.80299002267574,0.2205895691610067,195.99771799087463,55,0.6268711,G3
205.38503083900227,205.58240045351474,0.1973696145124677,195.99771799087463,55,0.7871238,G3
204.59426848072562,204.97868163265306,0.38441315192744696,164.81377845643496,52,0.4715538,E3
204.43172879818593,204.59426848072562,0.16253968253968765,174.61411571650194,53,0.7625796,F3
204.23435918367346,204.43172879818593,0.1973696145124677,174.61411571650194,53,0.5502567,F3
203.71191020408162,203.9092798185941,0.1973696145124677,184.9972113558172,54,0.6417635,Fsharp3
203.45649070294783,203.71191020408162,0.25541950113378675,184.9972113558172,54,0.5752552,Fsharp3
203.2823410430839,203.45649070294783,0.17414965986392872,184.9972113558172,54,0.7491051,Fsharp3
202.934041723356,203.2823410430839,0.3482993197279143,184.9972113558172,54,0.7601945,Fsharp3
201.89946984126985,202.10844943310659,0.2089795918367372,174.61411571650194,53,0.41823435,F3
201.20287120181408,201.36541088435374,0.16253968253965922,174.61411571650194,53,0.58370316,F3
200.66881224489796,201.20287120181408,0.5340589569161125,174.61411571650194,53,0.47587234,F3
197.4735006802721,198.08882947845805,0.6153287981859421,233.08188075904496,58,0.47198242,Asharp3
197.3225709750567,197.4735006802721,0.15092970521541815,233.08188075904496,58,0.64275444,Asharp3
197.09037142857142,197.3225709750567,0.2321995464852762,233.08188075904496,58,0.6041048,Asharp3
196.92783174603176,197.09037142857142,0.16253968253965922,233.08188075904496,58,0.6748529,Asharp3
196.76529206349207,196.9162217687075,0.15092970521541815,207.65234878997256,56,0.6042961,Gsharp3
196.47375873015875,196.73046213151926,0.25670340136051095,184.9972113558172,54,0.62679297,Fsharp3
196.2299492063492,196.47375873015875,0.24380952380954568,184.9972113558172,54,0.54264396,Fsharp3
195.9861396825397,196.2299492063492,0.24380952380951726,184.9972113558172,54,0.626469,Fsharp3
195.71911020408163,195.8932598639456,0.17414965986395714,207.65234878997256,56,0.5863558,Gsharp3
195.37081088435374,195.71911020408163,0.34829931972788586,207.65234878997256,56,0.5937341,Gsharp3
195.1386113378685,195.37081088435374,0.23219954648524777,207.65234878997256,56,0.757713,Gsharp3
194.9180217687075,195.1386113378685,0.2205895691610067,207.65234878997256,56,0.7869707,Gsharp3
193.7905700680272,194.20852925170067,0.4179591836734744,207.65234878997256,56,0.5710597,Gsharp3
193.65125034013604,193.7905700680272,0.13931972789114866,207.65234878997256,56,0.6787568,Gsharp3
193.50032063492063,193.65125034013604,0.15092970521541815,207.65234878997256,56,0.51399225,Gsharp3
192.91982176870746,193.15202131519274,0.2321995464852762,207.65234878997256,56,0.6368089,Gsharp3
192.24515918367348,192.50057868480727,0.25541950113378675,184.9972113558172,54,0.7370231,Fsharp3
191.94329977324264,192.24515918367348,0.3018594104308363,184.9972113558172,54,0.4733585,Fsharp3
191.7343201814059,191.94329977324264,0.2089795918367372,184.9972113558172,54,0.47993645,Fsharp3
191.2931410430839,191.61822040816327,0.3250793650793753,207.65234878997256,56,0.68224514,Gsharp3
191.13060136054423,191.2931410430839,0.16253968253965922,207.65234878997256,56,0.7108356,Gsharp3
190.65330839002266,191.0145015873016,0.3611931972789364,277.1826309768721,61,0.47939807,Csharp4
190.37466893424036,190.6416984126984,0.2670294784580278,261.6255653005986,60,0.54366696,C4
189.4807006802721,189.75934013605442,0.27863945578232574,155.56349186104046,51,0.54483676,Dsharp3
188.83054195011337,189.24850113378685,0.4179591836734744,184.9972113558172,54,0.740415,Fsharp3
188.13265941043085,188.38807891156463,0.25541950113378675,207.65234878997256,56,0.72807425,Gsharp3
187.98172970521543,188.13265941043085,0.15092970521541815,220.0,57,0.625958,A3
187.4592807256236,187.90045986394557,0.44117913832198496,195.99771799087463,55,0.41554937,G3
186.19250929705217,186.6801283446712,0.4876190476190345,174.61411571650194,53,0.6344248,F3
185.5539605442177,185.89064988662133,0.3366893424036448,184.9972113558172,54,0.41624874,Fsharp3
185.24049115646258,185.391420861678,0.15092970521541815,184.9972113558172,54,0.47288817,Fsharp3
184.86897188208619,185.24049115646258,0.3715192743763964,184.9972113558172,54,0.72160274,Fsharp3
183.90405986394558,184.054989569161,0.15092970521541815,174.61411571650194,53,0.6624022,F3
183.69508027210884,183.90405986394558,0.2089795918367372,184.9972113558172,54,0.60606825,Fsharp3
183.4164408163265,183.6486403628118,0.2321995464852762,174.61411571650194,53,0.44229016,F3
182.60245850340135,182.87077188208616,0.26831337868480887,184.9972113558172,54,0.4334003,Fsharp3
182.47474875283447,182.73016825396826,0.25541950113378675,369.9944227116344,66,0.3102456,Fsharp4
181.01189160997734,181.22087120181405,0.20897959183670878,233.08188075904496,58,0.31466034,Asharp3
181.00028163265307,181.2092612244898,0.2089795918367372,1864.6550460723597,94,0.48464993,Asharp6
180.22112925170066,180.69713832199545,0.47600907029479345,233.08188075904496,58,0.6655885,Asharp3
180.03536961451246,180.22112925170066,0.1857596371881982,233.08188075904496,58,0.7686118,Asharp3
179.7451201814059,180.03536961451246,0.2902494331065668,233.08188075904496,58,0.7176061,Asharp3
177.0271015873016,177.18964126984127,0.16253968253968765,277.1826309768721,61,0.49383315,Csharp4
174.77219818594102,174.98246167800454,0.21026349206351824,1396.9129257320155,89,0.42671564,F6
174.77219818594102,174.98246167800454,0.21026349206351824,277.1826309768721,61,0.27876416,Csharp4
174.51677868480724,174.70253832199546,0.18575963718822663,311.1269837220809,63,0.38671303,Dsharp4
174.505168707483,174.7489782312925,0.24380952380951726,932.3275230361799,82,0.3546597,Asharp5
170.98606167800455,171.26470113378684,0.2786394557822973,233.08188075904496,58,0.7748294,Asharp3
170.84674195011337,170.98606167800455,0.13931972789117708,233.08188075904496,58,0.85879487,Asharp3
170.4855487528345,170.6364784580499,0.15092970521541815,261.6255653005986,60,0.6704045,C4
169.97470975056692,170.28817913832202,0.3134693877551058,233.08188075904496,58,0.5110016,Asharp3
166.55880861678006,166.84905804988662,0.2902494331065668,207.65234878997256,56,0.32464385,Gsharp3
164.42128888888888,164.61865850340135,0.1973696145124677,739.9888454232688,78,0.3883226,Fsharp5
162.8874879818594,163.03970158730158,0.15221360544217077,233.08188075904496,58,0.59612715,Asharp3
161.4826807256236,162.6436784580499,1.1609977324262957,233.08188075904496,58,0.733685,Asharp3
160.83123809523812,161.04150158730158,0.2102634920634614,932.3275230361799,82,0.39417753,Asharp5
158.60083854875282,158.84464807256236,0.24380952380954568,311.1269837220809,63,0.43613398,Dsharp4
157.5095006802721,157.68365034013604,0.17414965986392872,830.6093951598903,80,0.30084914,Gsharp5
157.24247120181406,157.42823083900225,0.1857596371881982,184.9972113558172,54,0.43089896,Fsharp3
156.59102857142858,156.80000816326532,0.2089795918367372,277.1826309768721,61,0.6031255,Csharp4
156.3588290249433,156.60263854875285,0.24380952380954568,311.1269837220809,63,0.6553935,Dsharp4
155.61579047619048,155.75511020408163,0.13931972789114866,277.1826309768721,61,0.43472663,Csharp4
152.66428843537415,152.81521814058956,0.15092970521541815,2093.004522404789,96,0.28072903,C7
152.62945850340137,154.37223900226758,1.7427804988662103,233.08188075904496,58,0.64648986,Asharp3
152.2695492063492,152.4320888888889,0.16253968253968765,261.6255653005986,60,0.590597,C4
150.82862811791384,150.97955782312926,0.15092970521541815,830.6093951598903,80,0.2786226,Gsharp5
150.48032879818595,150.64286848072564,0.16253968253968765,1244.5079348883237,87,0.36426228,Dsharp6
149.79534013605442,149.9346598639456,0.13931972789117708,830.6093951598903,80,0.36541498,Gsharp5
148.11060952380953,148.29636916099773,0.1857596371881982,1244.5079348883237,87,0.31666514,Dsharp6
147.50689070294783,147.646210430839,0.13931972789117708,830.6093951598903,80,0.41057006,Gsharp5
143.208631292517,144.6134385487528,1.404807256235813,622.2539674441618,75,0.56212056,Dsharp5
142.5920185941043,143.00997777777778,0.4179591836734744,233.08188075904496,58,0.47158146,Asharp3
141.5006807256236,141.84898004535148,0.34829931972788586,184.9972113558172,54,0.5030741,Fsharp3
140.68669841269843,141.05950158730158,0.37280317460314905,207.65234878997256,56,0.5433582,Gsharp3
140.5009387755102,140.68669841269843,0.18575963718822663,207.65234878997256,56,0.60952115,Gsharp3
139.30511111111113,139.46765079365082,0.16253968253968765,311.1269837220809,63,0.49733177,Dsharp4
139.1541814058957,139.45604081632655,0.3018594104308363,207.65234878997256,56,0.5267345,Gsharp3
139.04840770975056,139.30511111111113,0.2567034013605678,311.1269837220809,63,0.2818944,Dsharp4
139.02518775510202,139.1541814058957,0.12899365079368863,207.65234878997256,56,0.36942354,Gsharp3
138.4446888888889,138.65366848072563,0.2089795918367372,207.65234878997256,56,0.665606,Gsharp3
137.7829201814059,137.95706984126983,0.17414965986392872,184.9972113558172,54,0.6789752,Fsharp3
137.19081133786847,137.4926707482993,0.3018594104308363,184.9972113558172,54,0.44139546,Fsharp3
136.02852970521542,136.21428934240365,0.18575963718822663,349.2282314330039,65,0.3932215,F4
136.02852970521542,136.24911927437643,0.2205895691610067,277.1826309768721,61,0.5202193,Csharp4
135.86599002267573,136.02852970521542,0.16253968253968765,277.1826309768721,61,0.63627464,Csharp4
135.7847201814059,135.93564988662132,0.15092970521541815,554.3652619537442,73,0.26053596,Csharp5
134.92429795918366,135.11134149659864,0.18704353741497926,155.56349186104046,51,0.5191957,Dsharp3
134.44828888888887,134.66887845804987,0.2205895691610067,184.9972113558172,54,0.51327187,Fsharp3
133.83296009070293,133.9722798185941,0.13931972789117708,207.65234878997256,56,0.7174521,Gsharp3
133.60076054421768,133.80974013605442,0.2089795918367372,220.0,57,0.53128767,A3
132.76355827664398,133.10024761904762,0.3366893424036448,195.99771799087463,55,0.34523705,G3
132.48491882086168,132.62423854875283,0.13931972789114866,146.8323839587038,50,0.35370505,D3
131.83476009070296,132.0089097505669,0.17414965986392872,174.61411571650194,53,0.5534089,F3
131.6373904761905,131.83476009070296,0.1973696145124677,174.61411571650194,53,0.6512616,F3
130.59120861678005,130.7305283446712,0.13931972789114866,184.9972113558172,54,0.6185377,Fsharp3
130.3590090702948,130.59120861678005,0.23219954648524777,184.9972113558172,54,0.7398189,Fsharp3
130.17324943310658,130.3590090702948,0.18575963718822663,174.61411571650194,53,0.39680004,F3
129.3257210884354,129.53470068027212,0.2089795918367372,184.9972113558172,54,0.5222518,Fsharp3
128.24470929705214,128.38402902494332,0.13931972789117708,554.3652619537442,73,0.35784432,Csharp5
128.0125097505669,128.1982693877551,0.1857596371881982,277.1826309768721,61,0.3934064,Csharp4
125.03778775510204,125.30610113378685,0.26831337868480887,233.08188075904496,58,0.53752047,Asharp3
124.68948843537414,125.03778775510204,0.34829931972790007,233.08188075904496,58,0.66869414,Asharp3
124.41084897959183,124.68948843537414,0.27863945578231153,233.08188075904496,58,0.5703385,Asharp3
124.28313922902494,124.59660861678005,0.3134693877551058,1174.6590716696303,86,0.32349345,D6
124.27152925170068,124.41084897959183,0.13931972789114866,233.08188075904496,58,0.6015899,Asharp3
123.86518004535148,124.00449977324263,0.13931972789114866,739.9888454232688,78,0.40186048,Fsharp5
123.85357006802721,124.06254965986395,0.2089795918367372,184.9972113558172,54,0.5765,Fsharp3
123.23824126984127,123.72586031746032,0.48761904761904873,184.9972113558172,54,0.57711804,Fsharp3
122.52874875283446,122.92348798185941,0.3947392290249496,207.65234878997256,56,0.74504286,Gsharp3
122.36620907029479,122.52874875283446,0.16253968253967344,207.65234878997256,56,0.8030419,Gsharp3
122.21527936507937,122.36620907029479,0.15092970521541815,195.99771799087463,55,0.50116706,G3
120.99494784580499,121.30970113378685,0.3147532879818584,207.65234878997256,56,0.71617067,Gsharp3
120.333179138322,120.49571882086167,0.16253968253967344,207.65234878997256,56,0.7257567,Gsharp3
119.59014058956916,120.00809977324262,0.4179591836734602,184.9972113558172,54,0.4945746,Fsharp3
119.230231292517,119.39277097505669,0.16253968253968765,184.9972113558172,54,0.5887352,Fsharp3
119.07801768707483,119.21862131519273,0.14060362811790128,174.61411571650194,53,0.5746461,F3
118.63683854875283,118.8690380952381,0.23219954648526198,207.65234878997256,56,0.6462978,Gsharp3
118.43946893424037,118.63683854875283,0.1973696145124677,220.0,57,0.5439657,A3
117.97506984126984,118.13760952380953,0.16253968253968765,277.1826309768721,61,0.6899714,Csharp4
117.73126031746033,117.97506984126984,0.24380952380951726,277.1826309768721,61,0.779507,Csharp4
116.80117823129252,117.05659773242631,0.25541950113378675,155.56349186104046,51,0.6457633,Dsharp3
116.336779138322,116.51092879818594,0.17414965986394293,174.61411571650194,53,0.3212156,F3
116.16262947845806,116.336779138322,0.17414965986394293,184.9972113558172,54,0.46435612,Fsharp3
115.64018049886621,115.8027201814059,0.16253968253968765,207.65234878997256,56,0.6983255,Gsharp3
115.44281088435375,115.59374058956917,0.15092970521541815,220.0,57,0.45252717,A3
114.80297823129251,114.95390793650793,0.15092970521541815,195.99771799087463,55,0.41318992,G3
114.59399863945578,114.80297823129251,0.2089795918367372,195.99771799087463,55,0.41809797,G3
114.44306893424036,114.59399863945578,0.15092970521541815,195.99771799087463,55,0.46536738,G3
113.676810430839,113.83935011337869,0.16253968253968765,174.61411571650194,53,0.6416088,F3
113.4910507936508,113.676810430839,0.1857596371881982,174.61411571650194,53,0.6711447,F3
112.56096870748298,112.79316825396825,0.23219954648526198,184.9972113558172,54,0.58549154,Fsharp3
112.2126693877551,112.56096870748298,0.34829931972788586,184.9972113558172,54,0.7951227,Fsharp3
112.00368979591836,112.2126693877551,0.2089795918367372,174.61411571650194,53,0.4771301,F3
111.08521768707483,111.41158095238094,0.3263632653061137,184.9972113558172,54,0.56355286,Fsharp3
110.81818820861677,111.03877777777777,0.22058956916099248,174.61411571650194,53,0.5667286,F3
110.37700907029478,110.53954875283446,0.16253968253968765,174.61411571650194,53,0.42282695,F3
109.9938798185941,110.3073492063492,0.3134693877551058,184.9972113558172,54,0.57787764,Fsharp3
109.83134013605442,109.9938798185941,0.16253968253967344,184.9972113558172,54,0.6160464,Fsharp3
109.11023764172336,109.24955736961452,0.13931972789116287,233.08188075904496,58,0.64029336,Asharp3
107.9376299319728,108.123389569161,0.18575963718821242,233.08188075904496,58,0.64478713,Asharp3
107.78670022675738,107.9376299319728,0.15092970521541815,233.08188075904496,58,0.602403,Asharp3
107.51967074829932,107.69382040816328,0.17414965986395714,233.08188075904496,58,0.6675834,Asharp3
107.35713106575965,107.51967074829932,0.16253968253967344,233.08188075904496,58,0.32299876,Asharp3
106.786958276644,106.9727179138322,0.1857596371881982,233.08188075904496,58,0.6783364,Asharp3
106.53153877551021,106.786958276644,0.25541950113378675,233.08188075904496,58,0.7591623,Asharp3
106.36899909297053,106.53153877551021,0.16253968253968765,233.08188075904496,58,0.42629507,Asharp3
105.32410113378685,105.47503083900227,0.15092970521541815,174.61411571650194,53,0.36992627,F3
105.1022276643991,105.28798730158731,0.18575963718821242,207.65234878997256,56,0.7035582,Gsharp3
104.96290793650793,105.1022276643991,0.13931972789116287,207.65234878997256,56,0.4878848,Gsharp3
104.69587845804989,104.88163809523809,0.1857596371881982,195.99771799087463,55,0.6262992,G3
103.26656734693877,103.39556099773243,0.1289936507936602,184.9972113558172,54,0.48813415,Fsharp3
102.90665804988662,103.09241768707483,0.18575963718821242,174.61411571650194,53,0.51492226,F3
102.5351387755102,102.67445850340135,0.13931972789114866,174.61411571650194,53,0.47783783,F3
102.3145492063492,102.5351387755102,0.2205895691610067,184.9972113558172,54,0.7484305,Fsharp3
101.32770113378685,101.47863083900226,0.15092970521541815,184.9972113558172,54,0.45942038,Fsharp3
101.05938775510204,101.32770113378685,0.26831337868480887,184.9972113558172,54,0.28337047,Fsharp3
100.73430839002268,100.8852380952381,0.15092970521541815,207.65234878997256,56,0.6000042,Gsharp3
99.75907029478458,100.36278911564625,0.6037188208616726,277.1826309768721,61,0.6139507,Csharp4
99.30499727891157,99.4339909297052,0.1289936507936318,155.56349186104046,51,0.56889164,Dsharp3
98.72449841269842,98.94508798185942,0.22058956916099248,184.9972113558172,54,0.6860908,Fsharp3
98.573568707483,98.72449841269842,0.15092970521541815,184.9972113558172,54,0.65385634,Fsharp3
98.3878090702948,98.573568707483,0.18575963718821242,207.65234878997256,56,0.78535056,Gsharp3
98.05111972789116,98.19043945578233,0.13931972789116287,184.9972113558172,54,0.46635,Fsharp3
97.59833061224491,97.87697006802722,0.27863945578231153,146.8323839587038,50,0.56451416,D3
96.84239818594105,96.99332789115647,0.15092970521541815,155.56349186104046,51,0.4927317,Dsharp3
96.58697868480726,96.84239818594105,0.25541950113378675,174.61411571650194,53,0.6319706,F3
96.134189569161,96.31994920634921,0.18575963718821242,174.61411571650194,53,0.40896514,F3
95.40276099773243,95.96003990929705,0.5572789115646231,174.61411571650194,53,0.67625594,F3
95.05317777777778,95.40276099773243,0.3495832199546527,174.61411571650194,53,0.41503105,F3
93.61354058956915,93.83413015873016,0.2205895691610067,184.9972113558172,54,0.62736887,Fsharp3
93.21751746031745,93.61354058956915,0.39602312925170224,184.9972113558172,54,0.5394623,Fsharp3
92.92726802721089,93.21751746031745,0.2902494331065668,184.9972113558172,54,0.36081284,Fsharp3
92.61379863945578,92.75311836734693,0.13931972789114866,739.9888454232688,78,0.3010949,Fsharp5
92.3235492063492,92.52091882086168,0.19736961451248192,155.56349186104046,51,0.6176951,Dsharp3
92.03329977324263,92.3235492063492,0.2902494331065668,155.56349186104046,51,0.41800135,Dsharp3
91.3586371882086,91.56890068027211,0.21026349206350403,184.9972113558172,54,0.5845204,Fsharp3
91.21931746031746,91.3586371882086,0.13931972789114866,184.9972113558172,54,0.62306184,Fsharp3
90.65042857142856,91.1728775510204,0.522448979591843,207.65234878997256,56,0.7403904,Gsharp3
89.81451020408163,90.04670975056689,0.23219954648526198,146.8323839587038,50,0.47240797,D3
89.65197052154194,89.81451020408163,0.16253968253968765,155.56349186104046,51,0.37240848,Dsharp3
89.1166276643991,89.3372172335601,0.22058956916099248,184.9972113558172,54,0.52589375,Fsharp3
88.94247800453515,89.1166276643991,0.17414965986395714,174.61411571650194,53,0.65672654,F3
88.72188843537415,88.86120816326532,0.13931972789116287,207.65234878997256,56,0.55524963,Gsharp3
88.28070929705216,88.4548589569161,0.17414965986394293,207.65234878997256,56,0.45926937,Gsharp3
88.0485097505669,88.2690993197279,0.2205895691610067,233.08188075904496,58,0.5077179,Asharp3
87.66538049886621,88.0485097505669,0.38312925170068013,207.65234878997256,56,0.42765328,Gsharp3
86.20123945578231,86.43343900226758,0.23219954648526198,184.9972113558172,54,0.39685923,Fsharp3
85.96903990929705,86.20123945578231,0.23219954648526198,174.61411571650194,53,0.76625437,F3
85.66718049886622,85.87616009070295,0.2089795918367372,184.9972113558172,54,0.57614034,Fsharp3
85.27115736961451,85.42208707482993,0.15092970521541815,184.9972113558172,54,0.63324857,Fsharp3
85.07378775510205,85.23632743764172,0.16253968253967344,174.61411571650194,53,0.62121135,F3
83.38905714285714,83.90118004535147,0.5121229024943261,184.9972113558172,54,0.5834682,Fsharp3
83.14524761904761,83.3077873015873,0.16253968253968765,174.61411571650194,53,0.4163432,F3
82.83177823129252,83.0871977324263,0.25541950113378675,174.61411571650194,53,0.6576445,F3
82.69245850340135,82.83177823129252,0.13931972789116287,174.61411571650194,53,0.6871292,F3
80.46205895691611,80.78713832199547,0.3250793650793611,698.4564628660078,77,0.31447425,F5
80.369179138322,80.52010884353741,0.15092970521541815,233.08188075904496,58,0.36197054,Asharp3
78.89342811791384,79.84673015873017,0.9533020408163253,233.08188075904496,58,0.5844517,Asharp3
78.74249841269841,78.88181814058957,0.13931972789116287,207.65234878997256,56,0.5711978,Gsharp3
78.4058090702948,78.64961859410431,0.24380952380951726,184.9972113558172,54,0.612728,Fsharp3
77.8717501133787,78.4058090702948,0.5340589569160983,184.9972113558172,54,0.61558294,Fsharp3
77.60472063492064,77.82531020408163,0.22058956916099248,207.65234878997256,56,0.67852503,Gsharp3
76.9068380952381,77.60472063492064,0.6978825396825385,207.65234878997256,56,0.6821649,Gsharp3
75.54847074829932,76.0244798185941,0.47600907029477924,207.65234878997256,56,0.662267,Gsharp3
75.16405759637188,75.30337732426304,0.13931972789116287,184.9972113558172,54,0.35132822,Fsharp3
74.85058820861678,75.10600770975057,0.25541950113378675,207.65234878997256,56,0.6769588,Gsharp3
74.153989569161,74.43262902494331,0.27863945578231153,184.9972113558172,54,0.59968036,Fsharp3
73.89857006802721,74.153989569161,0.25541950113378675,184.9972113558172,54,0.44338265,Fsharp3
73.65476054421768,73.89857006802721,0.24380952380953147,184.9972113558172,54,0.64024603,Fsharp3
73.25873741496598,73.47932698412698,0.2205895691610067,207.65234878997256,56,0.52469134,Gsharp3
73.11941768707483,73.25873741496598,0.13931972789114866,220.0,57,0.51930904,A3
72.44603900226757,72.71306848072562,0.26702947845805625,277.1826309768721,61,0.6580322,Csharp4
72.27188934240363,72.44603900226757,0.17414965986394293,277.1826309768721,61,0.79245085,Csharp4
71.31858730158731,71.58690068027211,0.26831337868479466,155.56349186104046,51,0.638465,Dsharp3
70.74969841269842,71.06316780045353,0.3134693877551058,184.9972113558172,54,0.6707438,Fsharp3
70.54071882086168,70.70325850340137,0.16253968253968765,207.65234878997256,56,0.5079973,Gsharp3
70.16919954648526,70.40139909297052,0.23219954648526198,207.65234878997256,56,0.740383,Gsharp3
70.02987981859411,70.16919954648526,0.13931972789114866,220.0,57,0.72995377,A3
69.40165714285715,69.53065079365079,0.128993650793646,195.99771799087463,55,0.55698866,G3
69.19267755102041,69.40165714285715,0.2089795918367372,195.99771799087463,55,0.34856638,G3
68.10133968253969,68.44963900226757,0.34829931972788586,174.61411571650194,53,0.6380572,F3
67.90397006802722,68.05489977324264,0.15092970521541815,155.56349186104046,51,0.5548018,Dsharp3
67.61372063492064,67.75304036281179,0.13931972789114866,195.99771799087463,55,0.4966687,G3
67.47311700680272,67.61372063492064,0.1406036281179155,184.9972113558172,54,0.6569806,Fsharp3
66.78812834467121,67.15964761904762,0.37151927437641064,184.9972113558172,54,0.6836944,Fsharp3
66.62558866213152,66.78812834467121,0.16253968253968765,184.9972113558172,54,0.57127607,Fsharp3
65.84772018140589,65.99864988662131,0.15092970521541815,174.61411571650194,53,0.56463945,F3
65.65035056689342,65.84772018140589,0.1973696145124677,184.9972113558172,54,0.60703796,Fsharp3
65.41686712018141,65.6271306122449,0.21026349206348982,174.61411571650194,53,0.38981107,F3
65.0105179138322,65.17305759637188,0.16253968253967344,174.61411571650194,53,0.66758883,F3
64.58094875283446,64.90602811791383,0.3250793650793753,184.9972113558172,54,0.7081486,Fsharp3
64.43001904761904,64.58094875283446,0.15092970521541815,174.61411571650194,53,0.76152986,F3
63.18646757369615,63.372227210884354,0.18575963718820532,233.08188075904496,58,0.5894463,Asharp3
62.95426802721089,63.151637641723354,0.1973696145124677,207.65234878997256,56,0.6443288,Gsharp3
62.002249886621314,62.74528843537415,0.7430385487528355,233.08188075904496,58,0.6727029,Asharp3
61.11860770975056,61.5481768707483,0.4295691609977368,233.08188075904496,58,0.7349815,Asharp3
59.59641678004535,59.74863038548752,0.15221360544217077,207.65234878997256,56,0.5662069,Gsharp3
59.07396780045352,59.21328752834467,0.13931972789115576,207.65234878997256,56,0.65111166,Gsharp3
58.841768253968254,59.07396780045352,0.23219954648526198,207.65234878997256,56,0.50490034,Gsharp3
57.70399047619048,57.90136009070295,0.1973696145124748,184.9972113558172,54,0.6458521,Fsharp3
57.56338684807256,57.70399047619048,0.1406036281179155,174.61411571650194,53,0.58876437,F3
57.3311873015873,57.56338684807256,0.23219954648526198,184.9972113558172,54,0.3793077,Fsharp3
57.157037641723356,57.3311873015873,0.17414965986394293,174.61411571650194,53,0.59171206,F3
56.83195827664399,56.982887981859406,0.15092970521541815,184.9972113558172,54,0.52429974,Fsharp3
56.599758730158726,56.83195827664399,0.23219954648526198,174.61411571650194,53,0.7625656,F3
56.28628934240363,56.5765387755102,0.2902494331065739,184.9972113558172,54,0.596916,Fsharp3
55.99603990929705,56.28628934240363,0.2902494331065739,184.9972113558172,54,0.49132407,Fsharp3
55.298157369614515,55.43747709750567,0.13931972789115576,220.0,57,0.61550313,A3
53.056147845804986,53.381227210884354,0.3250793650793682,220.0,57,0.43235016,A3
52.75428843537415,52.92843809523809,0.17414965986394293,220.0,57,0.549584,A3
52.60335873015873,52.75428843537415,0.15092970521541815,207.65234878997256,56,0.6226934,Gsharp3
52.38276916099773,52.60335873015873,0.2205895691609996,207.65234878997256,56,0.7176353,Gsharp3
52.231839455782314,52.38276916099773,0.15092970521541815,220.0,57,0.596578,A3
51.45268707482993,51.65134058956916,0.19865351473922743,207.65234878997256,56,0.5337316,Gsharp3
51.290147392290244,51.45268707482993,0.16253968253968765,207.65234878997256,56,0.75318044,Gsharp3
51.01150793650793,51.290147392290244,0.27863945578231153,207.65234878997256,56,0.7274952,Gsharp3
50.8025283446712,51.01150793650793,0.2089795918367301,207.65234878997256,56,0.47337627,Gsharp3
49.827290249433105,50.01304988662131,0.18575963718820532,207.65234878997256,56,0.44826466,Gsharp3
49.60541678004535,49.80407029478458,0.19865351473922743,184.9972113558172,54,0.58923167,Fsharp3
49.17584761904762,49.41965714285715,0.24380952380952436,184.9972113558172,54,0.65612674,Fsharp3
48.94364807256236,49.17584761904762,0.23219954648526198,184.9972113558172,54,0.54034245,Fsharp3
48.16577959183674,48.31670929705216,0.15092970521541815,184.9972113558172,54,0.34883526,Fsharp3
47.51433696145124,47.82909024943311,0.3147532879818655,184.9972113558172,54,0.5529634,Fsharp3
45.21427755102041,45.45808707482993,0.24380952380952436,155.56349186104046,51,0.5022815,Dsharp3
44.73826848072562,45.09817777777778,0.35990929705215535,184.9972113558172,54,0.56301755,Fsharp3
44.08810975056689,44.320309297052155,0.23219954648526198,174.61411571650194,53,0.58682525,F3
43.285737414965986,43.61081678004535,0.3250793650793611,184.9972113558172,54,0.5029534,Fsharp3
42.57752879818594,42.79811836734694,0.2205895691609996,174.61411571650194,53,0.5390629,F3
42.10151972789116,42.42659909297052,0.3250793650793611,174.61411571650194,53,0.61359847,F3
41.962199999999996,42.10151972789116,0.13931972789116287,174.61411571650194,53,0.76908755,F3
40.730258503401366,41.12499773242631,0.3947392290249425,184.9972113558172,54,0.42891234,Fsharp3
40.31229931972789,40.730258503401366,0.4179591836734744,174.61411571650194,53,0.4187681,F3
39.68407664399093,39.98721995464853,0.30314331065760314,184.9972113558172,54,0.59990084,Fsharp3
38.139949659863944,38.592738775510206,0.45278911564626156,184.9972113558172,54,0.45076355,Fsharp3
38.00062993197279,38.139949659863944,0.13931972789115576,184.9972113558172,54,0.45169732,Fsharp3
37.745210430839,37.919360090702945,0.17414965986394293,174.61411571650194,53,0.6099612,F3
37.592996825396824,37.745210430839,0.15221360544217788,184.9972113558172,54,0.46987727,Fsharp3
37.30274739229025,37.592996825396824,0.2902494331065739,174.61411571650194,53,0.5691006,F3
33.85330022675737,34.259649433106574,0.4063492063492049,233.08188075904496,58,0.6872496,Asharp3
33.46888707482993,33.85330022675737,0.38441315192743986,233.08188075904496,58,0.46228772,Asharp3
33.004487981859405,33.25990748299319,0.25541950113378675,184.9972113558172,54,0.49162853,Fsharp3
32.71423854875283,33.004487981859405,0.2902494331065739,184.9972113558172,54,0.6000528,Fsharp3
32.37754920634921,32.71423854875283,0.33668934240362347,184.9972113558172,54,0.6048437,Fsharp3
32.191789569160996,32.38915918367347,0.1973696145124748,207.65234878997256,56,0.5784784,Gsharp3
31.679666666666666,32.11051972789115,0.43085306122448586,207.65234878997256,56,0.72578174,Gsharp3
31.517126984126982,31.679666666666666,0.1625396825396841,207.65234878997256,56,0.80950123,Gsharp3
30.077489795918368,30.541888888888888,0.4643990929705204,207.65234878997256,56,0.5283648,Gsharp3
29.785956462585034,29.93817006802721,0.15221360544217433,184.9972113558172,54,0.45776007,Fsharp3
29.47248707482993,29.751126530612243,0.27863945578231153,207.65234878997256,56,0.5985305,Gsharp3
28.822328344671202,29.333167346938776,0.5108390022675735,184.9972113558172,54,0.48103893,Fsharp3
28.39275918367347,28.822328344671202,0.42956916099773323,184.9972113558172,54,0.56625867,Fsharp3
28.24182947845805,28.39275918367347,0.15092970521541815,184.9972113558172,54,0.72386193,Fsharp3
27.82387029478458,28.09089977324263,0.26702947845804914,207.65234878997256,56,0.59161985,Gsharp3
27.16081768707483,27.323357369614513,0.1625396825396841,277.1826309768721,61,0.71760714,Csharp4
26.882178231292517,27.16081768707483,0.27863945578231153,277.1826309768721,61,0.5881559,Csharp4
25.94177006802721,26.232019501133788,0.29024943310657747,155.56349186104046,51,0.7268334,Dsharp3
25.383207256235828,25.743116553287983,0.35990929705215535,184.9972113558172,54,0.5551749,Fsharp3
25.151007709750566,25.301937414965987,0.1509297052154217,207.65234878997256,56,0.611761,Gsharp3
24.767878458049886,25.151007709750566,0.38312925170068013,207.65234878997256,56,0.5743739,Gsharp3
24.570508843537414,24.767878458049886,0.19736961451247126,207.65234878997256,56,0.63900113,Gsharp3
23.873910204081632,24.106109750566894,0.23219954648526198,195.99771799087463,55,0.61515486,G3
23.721696598639458,23.873910204081632,0.15221360544217433,195.99771799087463,55,0.6634494,G3
22.676798639455782,23.08314784580499,0.40634920634920846,174.61411571650194,53,0.622441,F3
22.537478911564627,22.676798639455782,0.13931972789115576,155.56349186104046,51,0.57504076,Dsharp3
22.224009523809524,22.374939229024946,0.1509297052154217,195.99771799087463,55,0.54237115,G3
21.839596371882088,22.224009523809524,0.3844131519274363,184.9972113558172,54,0.5822731,Fsharp3
21.38680725623583,21.839596371882088,0.452789115646258,184.9972113558172,54,0.7876236,Fsharp3
20.423179138322,20.643768707482995,0.22058956916099604,184.9972113558172,54,0.64754087,Fsharp3
20.28385941043084,20.423179138322,0.13931972789115932,184.9972113558172,54,0.76504236,Fsharp3
20.005219954648528,20.28385941043084,0.27863945578231153,184.9972113558172,54,0.49445626,Fsharp3
19.864616326530612,20.005219954648528,0.1406036281179155,184.9972113558172,54,0.55690044,Fsharp3
19.609196825396825,19.760126530612244,0.15092970521541815,174.61411571650194,53,0.4855701,F3
19.295727437641723,19.481487074829932,0.18575963718820887,184.9972113558172,54,0.64654684,Fsharp3
19.017087981859408,19.284117460317457,0.26702947845804914,174.61411571650194,53,0.75265044,F3
16.40355918367347,16.658978684807256,0.25541950113378675,233.08188075904496,58,0.6144218,Asharp3
15.879826303854875,16.078479818594104,0.1986535147392292,233.08188075904496,58,0.66329116,Asharp3
15.728896598639455,15.879826303854875,0.15092970521541993,233.08188075904496,58,0.8014228,Asharp3
15.368987301587302,15.728896598639455,0.3599092970521536,233.08188075904496,58,0.6847027,Asharp3
14.86975827664399,15.10195782312925,0.2321995464852602,184.9972113558172,54,0.6243419,Fsharp3
14.614338775510204,14.86975827664399,0.25541950113378675,184.9972113558172,54,0.4556345,Fsharp3
14.324089342403628,14.614338775510204,0.2902494331065757,184.9972113558172,54,0.68297094,Fsharp3
14.115109750566893,14.266039455782312,0.15092970521541993,207.65234878997256,56,0.6421541,Gsharp3
13.917740136054421,14.115109750566893,0.19736961451247126,220.0,57,0.5234839,A3
13.579766893424036,13.917740136054421,0.337973242630385,207.65234878997256,56,0.76871246,Gsharp3
13.428837188208616,13.579766893424036,0.15092970521541993,207.65234878997256,56,0.7677189,Gsharp3
12.163349659863945,12.465209070294785,0.30185941043083986,207.65234878997256,56,0.49667308,Gsharp3
11.977590022675738,12.163349659863945,0.1857596371882071,207.65234878997256,56,0.6987875,Gsharp3
11.848596371882087,11.977590022675738,0.12899365079365133,207.65234878997256,56,0.6954426,Gsharp3
11.5931768707483,11.74410657596372,0.15092970521541993,184.9972113558172,54,0.53819746,Fsharp3
11.349367346938775,11.523517006802722,0.17414965986394648,207.65234878997256,56,0.67840564,Gsharp3
10.989458049886622,11.12877777777778,0.13931972789115754,184.9972113558172,54,0.5830887,Fsharp3
10.55988888888889,10.989458049886622,0.42956916099773146,184.9972113558172,54,0.47813797,Fsharp3
10.118709750566895,10.55988888888889,0.4411791383219956,184.9972113558172,54,0.61865276,Fsharp3
9.64141678004535,9.944560090702948,0.3031433106575978,207.65234878997256,56,0.6760639,Gsharp3
8.979648072562357,9.339557369614512,0.35990929705215535,277.1826309768721,61,0.48030645,Csharp4
8.747448526077097,8.979648072562357,0.2321995464852602,277.1826309768721,61,0.7745223,Csharp4
7.840586394557823,8.085679818594103,0.24509342403628054,155.56349186104046,51,0.66726893,Dsharp3
7.364577324263038,7.585166893424036,0.2205895691609978,184.9972113558172,54,0.71408856,Fsharp3
7.004668027210885,7.167207709750567,0.16253968253968232,207.65234878997256,56,0.5930262,Gsharp3
6.575098866213152,6.818908390022676,0.24380952380952348,207.65234878997256,56,0.7620286,Gsharp3
6.366119274376417,6.575098866213152,0.20897959183673542,220.0,57,0.7122819,A3
6.226799546485261,6.366119274376417,0.13931972789115576,207.65234878997256,56,0.74806714,Gsharp3
5.94687619047619,6.075869841269841,0.12899365079365133,195.99771799087463,55,0.41897574,G3
5.795946485260771,5.94687619047619,0.15092970521541904,207.65234878997256,56,0.47511354,Gsharp3
4.658168707482993,4.855538321995465,0.19736961451247215,174.61411571650194,53,0.6262271,F3
4.518848979591836,4.658168707482993,0.13931972789115665,174.61411571650194,53,0.765369,F3
4.367919274376417,4.518848979591836,0.15092970521541904,155.56349186104046,51,0.5662147,Dsharp3
3.9486761904761902,4.100889795918367,0.152213605442177,184.9972113558172,54,0.5665254,Fsharp3
3.519107029478458,3.7745265306122446,0.25541950113378675,184.9972113558172,54,0.6855674,Fsharp3
3.240467573696145,3.519107029478458,0.27863945578231286,184.9972113558172,54,0.6996972,Fsharp3
2.1026897959183675,2.5090390022675737,0.40634920634920624,184.9972113558172,54,0.60561925,Fsharp3
1.9620861678004535,2.1026897959183675,0.14060362811791394,184.9972113558172,54,0.69594103,Fsharp3
1.7647165532879818,1.9156462585034013,0.15092970521541949,164.81377845643496,52,0.3277439,E3
1.4512471655328798,1.5905668934240362,0.13931972789115643,174.61411571650194,53,0.58294547,F3
1.1145578231292517,1.3235374149659864,0.20897959183673476,184.9972113558172,54,0.6118742,Fsharp3
0.8707482993197279,1.1145578231292517,0.2438095238095238,184.9972113558172,54,0.80938184,Fsharp3
209.28855102040816,209.4278707482993,0.13931972789114866,220.0,57,0.7001602,A3
225.18127120181407,225.90108979591838,0.7198185941043107,233.08188075904496,58,0.5119291,Asharp3
170.69452834467123,170.84545804988664,0.15092970521541815,233.08188075904496,58,0.57972205,Asharp3
143.58015056689342,145.65962040816328,2.079469841269855,233.08188075904496,58,0.52852523,Asharp3
136.80639818594105,137.10954149659864,0.3031433106575889,207.65234878997256,56,0.5924766,Gsharp3
188.62027845804988,188.7492721088435,0.1289936507936318,207.65234878997256,56,0.5843205,Gsharp3
15.17161768707483,15.334157369614513,0.16253968253968232,207.65234878997256,56,0.59714925,Gsharp3
155.44164081632653,155.6041804988662,0.16253968253968765,246.94165062806206,59,0.56411177,B3
234.18413922902494,234.36989886621316,0.18575963718822663,233.08188075904496,58,0.5497154,Asharp3
209.79939002267574,209.95031972789116,0.15092970521541815,174.61411571650194,53,0.6437404,F3
188.4577387755102,188.59705850340137,0.13931972789117708,233.08188075904496,58,0.5999798,Asharp3
152.44369886621314,152.6178485260771,0.17414965986395714,233.08188075904496,58,0.5736102,Asharp3
44.320309297052155,44.55250884353742,0.23219954648526198,184.9972113558172,54,0.588823,Fsharp3
271.3024108843538,271.45334058956917,0.15092970521538973,440.0,69,0.5670356,A4
259.8008299319728,261.35785079365075,1.5570208616779269,2093.004522404789,96,0.5150997,C7
160.91250793650795,161.47107074829933,0.5585628117913757,233.08188075904496,58,0.5115062,Asharp3
108.86642811791384,109.0986276643991,0.23219954648526198,233.08188075904496,58,0.4690597,Asharp3
243.32761088435373,243.58303038548752,0.25541950113378675,233.08188075904496,58,0.5400176,Asharp3
211.64666031746032,211.8092,0.16253968253968765,207.65234878997256,56,0.5948617,Gsharp3
75.39625714285714,75.53686077097505,0.1406036281179155,207.65234878997256,56,0.5863753,Gsharp3
268.32897278911565,268.4682925170068,0.13931972789112024,391.99543598174927,67,0.5614732,G4
254.00359954648525,254.30674285714284,0.3031433106575889,311.1269837220809,63,0.5275838,Dsharp4
216.29321904761906,216.53831247165533,0.24509342403626988,466.1637615180899,70,0.4794226,Asharp4
266.2727229024943,266.48170249433105,0.2089795918367372,369.9944227116344,66,0.5165087,Fsharp4
25.8011664399093,25.930160090702948,0.12899365079364955,138.59131548843604,49,0.534543,Csharp3
101.66439047619048,101.82693015873015,0.16253968253967344,195.99771799087463,55,0.5100646,G3
149.56314058956917,149.72568027210886,0.16253968253968765,311.1269837220809,63,0.52143234,Dsharp4
219.140231292517,219.31438095238093,0.17414965986392872,311.1269837220809,63,0.5060905,Dsharp4
222.4271387755102,222.57935238095237,0.15221360544217077,277.1826309768721,61,0.4980348,Csharp4
250.33356281179138,250.7399120181406,0.4063492063492049,349.2282314330039,65,0.47034407,F4
185.9603097505669,186.09962947845807,0.13931972789117708,155.56349186104046,51,0.49202248,Dsharp3
254.56216235827662,254.7943619047619,0.2321995464852762,311.1269837220809,63,0.5207178,Dsharp4
116.32516916099773,116.47609886621315,0.15092970521541815,880.0,81,0.49205163,A5
244.6176022675737,244.75692199546484,0.13931972789114866,233.08188075904496,58,0.46364346,Asharp3
143.16219138321995,143.40600090702947,0.24380952380951726,233.08188075904496,58,0.5005599,Asharp3
80.39239909297052,80.810358276644,0.4179591836734744,29.13523509488062,22,0.44005206,Asharp0
217.40906077097506,217.65287029478458,0.24380952380951726,1864.6550460723597,94,0.43716264,Asharp6
143.47566077097505,143.67303038548752,0.1973696145124677,466.1637615180899,70,0.44798273,Asharp4
139.46765079365082,139.63019047619048,0.16253968253965922,155.56349186104046,51,0.44499967,Dsharp3
117.8009201814059,118.04472970521543,0.24380952380953147,1396.9129257320155,89,0.44740236,F6
269.0023514739229,269.26938095238097,0.26702947845808467,415.3046975799451,68,0.4481761,Gsharp4
43.890740136054426,44.07649977324263,0.18575963718820532,174.61411571650194,53,0.30444482,F3
213.56359047619048,213.9699396825397,0.4063492063492049,1396.9129257320155,89,0.3894688,F6
215.95652970521544,216.4325387755102,0.476009070294765,622.2539674441618,75,0.43010527,Dsharp5
257.8374598639456,258.33797278911567,0.500512925170085,2793.825851464031,101,0.40936163,F7
128.14021950113377,128.36080907029478,0.2205895691610067,184.9972113558172,54,0.38902304,Fsharp3
238.36629886621316,238.4952925170068,0.1289936507936318,830.6093951598903,80,0.42021656,Gsharp5
210.69464217687076,210.8687918367347,0.17414965986392872,1244.5079348883237,87,0.41601238,Dsharp6
81.01933786848073,81.19348752834468,0.17414965986394293,698.4564628660078,77,0.4031468,F5
65.17305759637188,65.37042721088434,0.1973696145124677,184.9972113558172,54,0.39304313,Fsharp3
210.41471882086168,210.5901523809524,0.17543356009070976,932.3275230361799,82,0.40083426,Asharp5
273.49798049886624,273.6489102040817,0.15092970521544657,466.1637615180899,70,0.38257587,Asharp4
207.61543038548754,207.76636009070296,0.15092970521541815,155.56349186104046,51,0.38716084,Dsharp3
251.70354013605444,252.01700952380952,0.3134693877550774,1479.9776908465376,90,0.32898223,Fsharp6
265.52840045351473,265.714160090703,0.18575963718825506,1108.7305239074883,85,0.34442404,Csharp6
215.41086077097506,215.5501804988662,0.13931972789114866,622.2539674441618,75,0.34091425,Dsharp5
216.59636235827665,216.7356820861678,0.13931972789114866,622.2539674441618,75,0.3321,Dsharp5
122.57518866213152,122.74933832199547,0.17414965986394293,1244.5079348883237,87,0.30233195,Dsharp6
175.8183800453515,175.9693097505669,0.15092970521541815,207.65234878997256,56,0.29454553,Gsharp3
